P3
36 64
255
49 46 50 46 45 48 43 43 48 44 43 48 43 43 46 43 44 47 43 43 47 42 43 47 43 43 48 42 43 47 42 44 48 42 43 47 42 43 47 42 43 47 41 42 47 42 42 47 41 42 47 41 42 47 41 42 47 41 43 47 42 43 47 41 43 48 41 43 47 42 42 46 42 43 46 41 42 47 42 43 47 42 43 47 41 43 47 42 43 47 42 43 47 43 43 47 44 43 48 42 43 47 42 43 47 42 43 47 
46 46 51 45 46 50 45 46 50 45 45 49 46 45 50 44 46 48 44 45 49 45 45 50 45 45 49 45 45 49 44 45 49 42 44 48 44 44 49 43 45 49 42 44 49 44 44 49 43 44 48 43 44 49 43 44 49 43 44 48 43 44 49 42 44 49 43 45 49 43 44 49 44 44 49 44 45 49 44 44 49 43 44 48 44 45 50 45 45 50 44 45 50 45 45 50 45 44 49 44 45 50 45 45 50 44 44 48 
49 49 52 48 48 52 48 47 52 47 48 52 47 47 52 47 47 51 46 47 51 46 48 52 45 47 51 46 47 52 44 47 50 46 47 51 46 47 50 46 47 51 46 47 51 45 46 51 44 46 50 45 46 51 44 46 51 44 46 51 45 46 51 44 46 50 44 46 50 45 46 50 45 46 50 46 46 50 45 47 51 45 46 51 46 46 51 46 46 51 46 47 51 45 47 51 46 47 51 46 46 51 46 46 50 45 46 50 
50 51 54 50 50 54 49 50 54 49 50 54 49 50 53 48 50 54 49 50 54 49 49 55 48 49 55 48 49 54 48 49 53 47 49 53 48 49 53 47 48 52 48 48 53 48 48 53 47 48 53 47 49 53 47 47 54 47 48 53 46 47 52 47 48 53 47 48 53 47 48 52 48 48 53 48 49 53 48 48 53 48 48 53 47 48 53 47 49 53 48 49 53 49 49 54 48 49 52 48 48 54 48 48 53 48 48 53 
51 53 56 52 52 57 52 52 56 51 52 56 52 52 57 52 52 57 51 51 55 50 51 56 50 51 56 50 51 56 50 50 55 49 50 56 50 51 55 49 50 55 49 50 54 49 50 54 49 50 55 49 50 55 48 49 54 48 49 55 49 49 56 48 49 55 49 50 55 49 50 55 49 50 54 50 51 56 50 50 55 49 50 55 49 50 54 49 50 55 51 51 56 50 51 55 49 51 55 50 50 56 50 50 55 50 50 55 
54 55 59 55 54 60 54 55 59 54 54 59 54 54 58 52 53 58 52 53 58 51 53 58 52 53 57 51 53 58 52 52 57 51 52 57 51 52 58 51 52 57 50 52 57 50 51 58 50 51 57 50 52 57 51 52 57 50 51 57 49 51 58 49 52 57 50 51 57 51 52 57 51 52 57 51 51 57 51 52 57 51 52 57 51 52 57 51 52 57 52 52 57 52 53 58 52 53 57 51 52 58 51 52 57 51 52 57 
55 56 60 55 56 60 55 56 60 55 56 60 55 56 60 53 55 60 53 54 60 53 54 59 52 54 58 53 54 59 52 53 59 53 53 60 52 53 59 52 53 59 52 53 58 52 53 58 52 54 58 51 53 59 50 52 58 51 53 58 51 53 59 51 53 59 52 53 59 52 53 59 52 53 59 52 53 58 52 53 58 52 53 58 53 54 59 52 54 58 53 54 58 54 54 60 53 54 58 52 54 59 52 53 59 52 53 59 
57 58 63 56 58 63 57 58 63 56 57 63 56 57 63 56 56 63 55 56 62 55 56 61 53 56 60 54 55 61 55 55 61 54 54 62 54 54 62 54 54 61 54 54 61 54 55 60 53 55 59 53 55 61 52 55 61 52 54 60 51 55 60 53 55 60 54 55 60 54 55 60 54 54 62 54 54 60 54 55 60 54 55 60 54 55 60 55 55 61 54 55 60 55 55 61 55 56 61 55 55 62 54 55 61 54 55 60 
58 59 64 58 58 65 58 58 65 58 58 64 56 58 63 57 58 63 57 57 63 56 58 63 57 58 63 56 57 62 56 56 63 56 56 63 55 56 62 55 56 63 55 56 62 56 57 62 54 57 62 55 57 62 56 56 64 55 56 63 54 57 63 53 56 62 55 56 63 56 56 62 55 56 62 55 56 63 55 56 62 54 56 61 55 56 62 56 57 62 56 57 63 56 57 62 57 57 62 56 57 63 56 58 62 56 57 62 
58 60 65 59 60 66 58 60 65 58 60 66 58 60 65 59 60 65 58 59 64 58 59 64 56 59 64 56 59 64 57 59 65 58 58 65 57 58 66 56 58 65 56 58 65 57 58 65 56 58 65 56 58 65 57 58 64 58 59 66 57 58 65 57 59 65 57 58 64 57 58 64 57 58 64 56 58 64 57 58 64 56 58 64 57 59 65 58 59 65 56 58 64 57 59 64 57 59 65 58 59 65 57 59 64 57 58 64 
62 62 67 61 62 67 60 61 66 60 61 67 59 61 66 59 60 67 59 61 66 59 61 66 59 61 67 60 61 67 60 61 66 60 61 67 60 60 68 59 61 67 59 60 66 59 60 66 58 61 67 58 60 67 60 61 67 59 61 67 60 60 68 60 61 68 58 60 67 59 60 66 58 60 66 58 60 67 60 61 67 58 60 66 59 60 67 59 60 65 59 60 65 59 61 66 58 61 66 58 61 66 59 61 66 59 60 65 
61 62 69 62 63 68 61 62 67 61 62 67 62 63 68 60 62 68 62 62 69 61 62 69 60 63 68 62 63 68 61 62 69 62 62 69 62 62 69 62 62 70 60 62 69 60 62 69 59 62 68 60 62 69 62 62 70 62 63 70 61 62 69 62 62 70 61 62 69 60 62 69 60 62 69 61 62 68 61 62 67 61 62 68 61 62 68 60 62 68 61 62 68 60 62 67 60 61 67 59 61 67 58 62 67 60 62 67 
62 62 70 63 63 70 62 64 69 62 64 69 63 64 69 62 63 70 63 64 71 63 64 70 63 64 69 62 64 69 63 63 70 63 64 70 63 64 70 62 64 71 62 64 71 62 64 71 62 64 71 63 64 70 63 63 69 62 63 70 64 64 71 63 64 70 62 64 71 62 64 70 62 64 71 62 63 71 63 63 71 63 63 71 62 63 70 62 63 70 62 63 69 61 63 69 60 63 68 62 63 69 62 63 69 62 63 67 
64 64 70 64 65 70 64 65 70 64 65 71 64 65 70 64 65 71 65 65 72 65 66 71 64 65 72 64 65 72 65 65 72 65 66 72 64 65 73 65 65 73 63 66 73 64 65 72 65 65 74 65 65 73 65 65 73 65 65 73 65 65 73 65 66 74 64 66 73 63 66 73 63 65 73 65 65 73 65 65 73 65 65 72 64 65 71 62 65 72 63 65 71 63 64 70 63 65 70 63 64 70 62 63 70 62 64 70 
64 66 71 65 65 71 65 66 72 65 66 72 65 66 73 66 67 74 66 66 74 66 67 73 67 67 75 67 67 75 67 67 75 66 67 75 65 68 75 66 67 75 65 68 75 65 68 75 65 68 76 65 68 76 66 67 76 65 68 76 65 67 75 66 67 75 65 67 76 66 67 75 66 67 74 66 67 75 66 67 75 66 68 73 65 67 73 64 67 74 63 67 74 65 67 74 65 67 73 65 66 72 65 65 73 63 65 71 
66 66 73 66 67 74 67 67 75 67 67 76 67 68 76 68 68 76 68 69 77 69 70 76 69 70 76 68 69 76 69 69 77 68 69 78 67 70 78 67 70 78 67 70 78 68 70 77 67 70 78 67 70 78 67 70 78 67 70 78 67 70 77 67 70 77 68 69 78 68 69 78 68 69 77 68 69 77 68 69 77 68 70 76 68 69 76 66 69 77 66 69 77 67 69 75 67 68 75 66 68 74 66 67 74 65 66 74 
67 67 74 68 68 75 68 69 76 69 69 77 69 69 77 69 71 78 70 71 79 71 71 79 70 72 77 71 71 78 70 72 79 69 72 80 69 72 80 69 72 81 70 72 81 70 72 80 69 72 80 70 72 80 70 72 80 70 72 79 70 72 80 70 72 80 70 72 80 69 72 81 70 72 80 71 71 79 70 71 80 70 71 78 69 71 79 68 71 79 68 70 78 69 70 79 69 70 77 68 70 76 67 69 75 67 68 74 
68 69 75 70 70 78 70 70 79 71 71 80 71 71 80 71 73 81 73 73 81 73 74 80 73 74 81 74 74 82 72 74 82 72 75 82 71 74 82 72 74 83 72 74 83 72 74 83 72 74 83 72 74 83 72 74 83 72 74 84 72 74 83 71 75 82 71 74 82 71 74 83 73 74 82 73 74 82 73 73 82 73 74 82 72 73 82 71 73 81 71 72 82 71 72 82 71 72 80 70 71 79 68 70 76 68 70 75 
70 71 78 72 72 80 72 72 81 73 73 82 74 74 82 74 75 83 76 76 84 76 76 83 76 76 84 76 76 85 75 76 84 74 77 85 75 77 86 75 77 86 74 77 85 74 77 85 74 77 85 74 77 85 74 77 85 74 77 86 74 76 85 74 77 85 74 77 86 73 77 86 74 77 86 75 76 85 75 76 85 75 76 84 75 76 85 75 76 85 75 75 85 74 75 84 73 74 82 72 74 81 71 73 79 70 72 77 
72 72 80 74 74 82 75 75 83 76 76 84 76 76 85 78 78 86 78 78 86 78 78 87 79 79 89 79 79 88 78 79 88 77 79 88 76 79 88 77 79 88 76 79 88 76 79 88 76 79 88 76 79 89 76 79 89 76 79 89 76 79 89 76 79 88 76 79 88 76 79 88 77 79 88 76 79 87 78 79 88 78 79 87 78 79 88 77 78 88 77 78 87 76 77 85 75 76 84 74 76 83 73 75 82 72 73 80 
75 75 84 76 76 84 77 77 85 78 78 86 79 80 88 80 80 88 81 81 89 82 82 91 82 81 91 81 82 91 80 82 91 80 83 91 80 82 91 80 83 92 80 83 92 81 83 92 79 82 92 78 83 93 79 83 92 79 82 92 79 82 92 79 83 92 79 83 91 80 83 91 79 82 91 80 82 91 81 82 91 81 82 92 81 82 91 81 82 91 80 81 89 80 81 89 78 80 87 77 79 87 76 78 85 75 77 83 
77 77 85 79 79 87 80 80 89 82 82 90 82 82 90 83 83 92 84 84 92 85 85 94 85 85 94 84 85 94 84 86 94 84 86 95 84 86 95 83 86 95 83 86 95 84 87 96 84 87 96 83 86 96 84 87 96 83 87 96 83 86 95 84 87 95 83 86 95 83 86 95 84 87 95 84 86 94 84 85 93 85 86 94 84 85 94 84 85 94 83 84 93 83 84 92 82 83 91 80 82 89 79 80 87 78 79 86 
80 80 87 81 82 89 83 83 92 84 84 93 85 86 93 87 87 95 87 87 95 87 87 96 88 88 96 87 89 97 87 90 97 87 90 97 88 90 98 88 91 99 88 91 99 88 91 99 87 90 99 88 91 100 87 91 99 88 91 100 88 91 100 88 91 100 88 91 99 88 91 98 87 90 97 88 90 97 89 89 98 89 89 98 88 89 97 87 88 96 86 87 96 86 87 95 85 86 94 83 84 92 82 84 91 82 83 89 
83 83 89 85 85 91 86 86 94 88 88 94 89 90 96 90 90 97 91 91 97 91 92 97 92 92 98 92 94 99 92 94 99 93 94 100 93 94 101 93 96 102 94 95 102 94 96 104 93 96 104 93 96 104 94 96 104 94 96 104 95 96 104 94 96 103 94 95 103 94 95 101 94 94 101 94 94 101 93 94 101 93 94 100 92 93 99 92 93 99 91 92 98 90 91 98 89 90 96 88 89 95 86 87 94 85 85 92 
88 88 91 89 89 93 90 91 94 92 92 96 93 94 98 95 94 99 96 96 100 96 97 100 96 97 101 97 98 102 99 99 103 99 100 104 100 100 105 100 101 105 101 101 106 101 102 106 101 101 108 100 102 108 101 102 108 101 101 108 101 102 106 101 101 106 100 101 106 100 101 105 100 100 105 99 100 104 99 100 104 98 99 103 97 98 102 97 97 101 97 96 101 95 96 100 95 94 99 93 92 98 92 91 96 90 90 94 
92 91 91 94 93 94 97 95 96 97 97 97 100 98 99 102 99 101 102 100 101 102 101 101 103 101 104 104 103 104 105 104 105 105 105 106 106 106 106 108 106 107 108 107 109 109 108 109 109 108 110 110 108 112 110 108 111 109 108 111 109 108 110 108 107 110 107 107 110 107 106 109 107 106 109 106 105 108 105 105 107 105 104 106 105 104 105 104 103 104 103 102 103 102 100 102 101 100 101 100 97 100 98 96 98 98 94 97 
100 95 92 102 97 94 103 99 96 105 101 98 107 102 99 107 104 99 109 105 101 109 106 103 109 107 104 111 108 106 113 110 107 114 111 108 115 112 109 117 113 110 119 114 111 119 114 112 120 115 113 120 115 114 121 116 114 119 115 113 119 115 112 118 114 112 118 114 112 117 113 111 116 112 110 115 112 110 113 110 108 112 110 107 112 109 107 111 108 105 111 107 104 111 106 103 110 105 101 108 103 100 106 101 98 104 99 96 
108 100 94 110 101 95 112 104 97 114 106 99 115 107 100 117 109 102 118 110 102 120 112 105 121 114 107 122 115 108 124 117 109 126 118 111 128 119 112 129 120 112 131 122 114 132 123 115 134 124 117 135 125 118 136 125 118 133 124 116 131 123 116 130 122 115 130 122 115 129 120 114 127 120 113 125 118 112 123 118 110 123 117 109 123 115 109 123 115 107 122 114 107 121 112 104 120 111 103 118 109 101 117 108 100 113 105 98 
118 106 92 119 108 94 121 110 96 128 113 97 140 118 95 134 117 99 132 118 102 135 119 104 143 124 105 136 123 107 137 123 109 138 125 112 141 127 112 143 129 114 145 131 115 151 132 117 154 135 118 153 136 120 152 136 120 149 134 118 146 132 117 144 130 117 143 129 116 141 128 115 138 127 114 136 125 112 135 124 111 133 123 110 133 122 109 132 121 109 133 120 107 131 119 106 130 119 104 128 117 102 126 115 100 123 112 98 
125 110 87 127 112 90 130 115 92 134 116 95 135 118 96 136 120 97 138 121 101 140 123 103 141 125 105 143 127 107 147 129 109 150 132 111 153 134 113 157 136 114 160 139 115 165 141 118 168 144 120 169 146 121 169 146 121 166 144 119 162 141 117 159 139 116 156 137 116 153 135 115 150 134 113 148 132 112 146 130 111 145 129 108 144 128 107 144 127 105 143 126 105 142 125 104 141 124 101 140 122 100 137 121 98 135 119 96 
131 112 82 134 115 84 137 117 86 140 120 90 141 121 92 144 123 94 145 125 95 148 127 98 151 129 101 154 131 103 157 134 106 161 137 108 166 140 110 172 144 111 178 148 114 182 152 116 187 155 119 190 156 121 188 156 121 185 153 118 180 150 115 174 147 114 169 144 112 166 142 111 163 139 109 160 137 108 158 136 106 156 135 104 156 134 103 156 133 101 155 132 100 154 131 98 153 130 97 152 128 97 150 126 94 147 124 92 
136 112 74 139 115 75 142 117 79 144 119 81 147 121 83 149 123 86 152 125 87 154 127 90 158 130 92 163 133 94 167 137 98 172 140 100 179 145 102 186 151 106 195 157 110 203 163 114 210 169 118 213 171 122 212 170 121 206 165 116 198 159 112 191 154 108 184 150 106 180 146 104 175 143 102 171 140 99 169 139 98 168 139 95 167 138 94 167 136 93 167 136 93 166 135 92 166 134 92 164 133 91 162 132 89 160 130 87 
141 108 61 143 111 65 146 114 67 150 116 69 152 118 72 155 120 73 157 123 75 161 125 77 165 129 80 170 132 82 175 136 85 183 142 88 191 148 93 201 157 97 213 166 105 224 177 113 231 188 124 233 193 127 234 190 126 229 180 116 218 170 106 207 161 99 198 154 95 191 148 92 186 145 89 182 142 87 179 140 85 177 139 84 177 138 84 177 138 84 177 138 85 176 139 85 174 138 87 171 138 86 170 137 85 166 135 84 
140 100 51 142 103 54 146 105 56 150 107 57 153 108 59 156 111 61 160 114 62 163 117 63 168 121 65 174 125 67 181 131 70 190 138 75 200 147 79 214 159 88 228 174 101 232 192 113 233 210 120 233 217 131 235 212 120 236 195 118 235 180 102 221 166 90 209 155 83 200 148 78 194 142 75 189 138 73 186 136 72 185 135 72 183 135 72 182 136 75 180 136 77 177 138 76 175 140 75 172 141 76 170 139 82 167 137 83 
122 79 43 124 80 44 129 83 46 133 86 46 137 89 46 142 91 49 147 94 50 151 97 50 156 101 51 164 107 52 172 113 56 183 122 59 195 133 64 211 149 73 225 169 88 227 194 101 228 213 143 228 215 197 229 215 149 231 201 106 233 178 96 223 160 80 210 147 70 200 137 65 193 130 61 187 125 60 183 122 58 180 121 58 180 122 60 178 123 63 176 125 65 172 129 64 171 132 67 169 131 90 167 130 97 165 128 96 
83 53 39 87 56 40 90 57 39 86 55 39 86 53 36 86 53 34 88 53 34 86 51 31 93 54 33 97 56 32 110 63 34 128 75 39 147 90 43 169 109 51 188 131 61 201 158 80 205 189 101 208 197 156 208 191 123 208 171 85 202 146 74 191 128 62 177 112 54 169 103 50 162 98 48 160 96 48 157 94 47 155 93 48 153 93 48 153 96 49 154 97 53 155 101 55 155 106 59 152 108 58 151 111 61 149 111 61 
37 30 30 39 31 31 40 33 32 39 33 32 39 33 32 39 33 31 39 33 33 40 33 33 41 35 34 41 34 33 42 34 31 45 34 32 52 38 35 62 42 37 69 43 36 84 51 39 103 64 45 113 70 46 103 61 44 85 52 41 69 44 37 60 41 36 53 38 35 47 35 33 45 35 33 45 35 34 45 35 35 45 35 35 45 35 35 47 36 36 49 38 37 49 36 36 50 38 35 54 39 37 52 37 34 50 36 33 
53 48 48 52 47 47 52 47 46 50 46 46 48 44 44 49 45 44 48 44 44 48 43 44 47 43 44 50 46 45 52 46 46 55 48 48 60 51 50 67 54 51 71 56 52 78 58 54 84 61 54 94 64 54 86 60 54 76 55 52 67 52 49 63 51 50 61 51 51 61 52 51 58 51 50 59 51 52 57 50 50 59 52 51 59 51 51 55 47 48 55 47 48 58 48 49 58 48 49 60 49 49 64 51 49 60 46 45 
40 38 37 38 35 35 38 35 34 38 35 34 41 38 37 45 41 40 49 45 45 53 49 49 54 49 49 57 52 51 55 49 47 58 51 49 61 53 51 67 56 53 67 54 51 70 55 53 78 60 55 90 64 55 89 67 59 83 65 59 79 63 58 76 63 59 73 63 60 67 58 56 65 56 56 56 51 50 56 51 49 59 53 52 62 55 54 59 52 52 58 51 50 57 50 49 56 49 50 53 46 46 52 43 43 48 39 39 
41 37 38 45 41 41 49 44 43 50 46 46 50 45 44 54 49 48 56 50 49 57 51 52 50 46 45 60 55 53 63 55 53 60 52 51 69 60 58 68 57 55 75 62 58 77 62 57 74 59 55 66 54 52 64 52 51 59 49 47 56 48 46 55 47 46 60 52 51 64 55 54 57 51 50 58 52 51 63 56 55 67 59 57 72 62 60 73 63 61 68 58 56 70 61 59 63 55 54 61 53 52 61 54 53 55 49 49 
38 35 37 45 42 41 45 41 40 56 50 48 54 49 49 50 46 44 51 46 46 56 51 50 58 54 53 61 55 54 59 54 50 64 58 55 66 57 55 63 53 51 80 66 60 77 63 56 85 66 57 86 67 59 75 61 56 73 61 57 60 53 51 58 51 50 63 56 54 61 55 54 62 55 54 60 54 53 58 52 51 59 53 52 56 50 51 51 44 44 50 44 42 52 45 44 58 47 46 71 57 53 70 59 54 65 54 51 
40 38 40 41 39 41 44 41 41 52 47 47 57 51 50 56 51 48 54 48 48 60 52 51 59 53 51 57 52 50 58 52 51 57 51 49 60 52 50 61 53 50 62 52 48 63 53 47 78 60 52 108 80 62 110 81 63 79 65 57 76 64 58 63 53 49 59 51 50 53 47 46 61 54 53 57 50 49 60 55 54 58 53 51 56 50 50 55 51 50 58 54 54 53 49 48 50 45 45 57 49 46 60 50 47 61 51 49 
43 42 47 46 43 49 47 43 48 51 46 48 57 50 50 57 51 51 60 53 52 81 71 64 80 70 63 76 68 62 75 66 62 70 62 59 61 52 50 62 53 51 57 48 46 55 46 43 71 57 51 70 55 49 67 54 49 62 53 50 66 57 53 70 62 58 74 65 60 77 67 63 77 66 62 77 67 63 69 61 59 62 55 54 63 56 54 66 58 55 65 58 55 62 56 53 63 56 54 51 44 43 50 45 46 44 40 42 
51 49 52 54 51 52 52 48 52 54 49 52 60 54 53 71 64 60 72 65 61 76 67 62 78 69 63 78 68 61 79 68 61 80 69 62 85 71 65 86 71 62 88 71 62 82 66 57 92 70 58 91 72 60 80 62 53 70 57 52 68 57 52 73 63 56 75 65 59 73 63 59 72 63 58 76 67 63 72 63 59 80 68 62 80 68 62 74 63 58 72 61 57 70 59 53 71 58 52 69 57 52 65 54 49 63 54 51 
64 58 58 59 54 55 61 55 54 65 59 59 60 56 54 66 60 56 68 62 58 68 60 56 64 57 52 77 67 61 77 67 59 72 61 56 85 69 61 87 69 60 97 76 61 95 72 58 98 73 57 95 71 55 78 60 53 68 57 52 65 55 51 66 57 54 69 59 54 68 61 56 62 55 53 59 52 50 64 56 54 58 52 51 54 47 44 59 51 48 62 54 52 62 54 51 58 51 48 56 48 46 55 48 46 56 49 47 
70 63 58 69 62 57 70 63 59 82 72 64 72 65 59 56 52 51 54 49 49 57 53 52 54 51 50 51 48 48 48 44 45 64 55 54 68 57 52 80 64 58 101 76 58 128 94 65 143 110 80 133 101 69 116 87 62 104 78 60 95 75 59 79 64 55 67 58 54 54 48 48 66 58 54 69 60 56 70 60 55 72 60 55 74 61 55 78 64 56 82 66 55 86 68 57 83 66 54 83 67 53 87 69 56 94 75 58 
61 54 51 63 57 53 57 52 50 64 57 54 71 64 58 68 61 57 66 58 54 60 55 53 47 43 43 43 42 42 45 43 42 49 44 45 55 47 44 67 54 46 104 74 56 126 94 68 135 102 72 123 94 67 102 77 57 87 65 52 84 65 53 78 63 53 80 67 56 70 58 51 59 51 46 61 52 48 63 55 50 63 54 49 69 59 54 80 66 57 85 72 61 72 61 55 76 66 57 75 64 56 71 60 55 63 55 51 
42 39 41 42 40 41 45 41 41 54 48 47 56 50 47 54 49 46 48 44 43 51 45 44 50 46 43 48 44 40 41 37 36 28 27 27 24 23 23 24 22 22 31 25 25 59 42 34 83 62 49 110 81 56 115 81 58 92 67 50 85 61 47 74 56 45 74 58 48 70 56 48 71 59 51 69 58 51 67 56 51 65 56 49 63 54 48 62 54 48 61 53 48 60 48 43 62 52 45 58 50 46 55 46 43 66 55 48 
47 45 46 49 46 48 44 41 44 47 44 46 39 35 37 38 34 38 37 34 37 49 46 47 45 42 43 35 34 37 31 29 34 28 28 32 30 29 33 32 29 33 30 27 29 38 32 32 55 41 35 74 54 42 71 54 44 76 57 48 68 54 47 56 49 46 48 43 43 51 47 46 55 48 46 54 49 46 51 45 45 52 46 44 52 46 44 46 40 39 45 39 38 50 42 42 50 43 41 51 44 42 51 43 40 37 31 32 
52 45 43 44 39 37 45 40 41 49 45 43 48 43 41 52 45 44 50 43 43 51 46 43 49 43 42 42 39 41 32 29 32 38 35 38 42 38 41 42 36 40 38 33 36 34 30 30 28 24 26 32 26 28 26 22 23 40 31 28 42 32 30 40 33 31 39 33 33 42 35 33 45 40 39 47 41 41 55 50 46 48 44 42 44 39 39 46 41 40 55 48 46 56 49 46 55 49 46 47 41 40 40 36 37 49 43 42 
80 66 49 82 67 50 81 66 50 77 63 49 67 56 43 63 52 42 60 49 40 61 49 41 54 44 38 43 36 33 39 33 29 41 34 32 44 37 34 47 39 35 46 38 35 41 33 31 42 34 29 32 28 28 24 21 24 24 21 23 22 19 22 24 22 22 28 24 23 37 31 29 34 28 26 33 29 27 30 26 26 31 27 25 36 30 28 36 30 29 38 33 32 41 36 34 42 37 33 51 44 39 59 49 44 49 43 42 
81 67 49 81 67 49 81 67 50 83 68 51 82 67 51 83 67 52 84 68 52 86 70 52 86 69 52 75 61 46 61 49 39 45 35 29 48 37 31 54 40 33 54 40 32 56 43 34 51 39 32 58 43 34 63 48 38 64 47 38 52 42 35 53 42 36 47 37 31 34 27 26 36 29 27 42 35 33 39 33 29 40 32 28 43 34 29 40 32 29 34 27 25 30 25 23 28 23 22 34 29 28 41 33 31 37 29 26 
72 59 45 74 61 46 75 62 48 74 62 48 76 63 49 78 65 50 79 66 50 82 66 51 83 67 51 88 69 49 93 71 47 102 74 47 70 52 36 54 40 33 56 42 34 68 49 36 58 42 33 43 34 29 51 39 33 55 42 33 45 35 29 52 39 31 55 41 31 54 40 32 54 40 30 46 35 27 40 32 30 32 27 27 27 22 21 24 19 19 29 24 23 40 31 28 39 32 29 35 30 28 33 28 27 28 25 25 
62 51 40 65 54 42 68 56 42 70 58 45 73 61 47 75 62 47 75 62 48 78 64 49 82 65 50 87 68 48 96 71 47 107 76 45 111 77 46 61 44 35 48 36 30 54 40 32 56 42 34 65 47 37 69 50 37 61 45 35 60 46 37 50 40 31 55 43 33 61 47 36 66 48 36 56 41 33 44 34 30 42 34 31 39 31 29 34 29 27 42 34 32 42 34 32 42 33 32 41 32 29 42 33 32 36 29 29 
57 48 38 63 52 41 65 54 42 68 56 44 69 59 46 69 59 46 71 60 49 73 60 48 77 63 48 78 63 47 85 66 47 98 72 46 117 82 46 70 51 35 45 34 29 52 38 32 52 37 30 55 41 31 58 42 34 59 43 34 64 47 38 65 48 39 69 52 41 64 48 37 57 43 35 63 49 38 69 53 42 55 43 37 49 40 37 47 39 37 51 42 40 40 35 37 37 33 34 39 35 35 34 26 28 31 26 24 
29 21 15 38 29 20 47 36 27 54 42 32 62 50 37 67 54 41 68 56 42 70 58 44 71 57 44 73 58 41 78 60 42 85 62 41 106 72 42 135 93 49 115 82 45 61 45 32 45 32 25 50 38 30 56 41 32 52 39 30 68 50 37 64 48 39 60 46 39 67 50 41 71 53 43 74 55 44 74 54 42 79 60 48 70 56 43 66 53 41 62 51 41 46 39 38 33 30 31 34 31 38 34 32 37 38 34 37 
26 18 13 27 19 13 28 19 13 33 23 16 40 27 19 46 31 22 50 35 26 54 38 26 62 42 28 70 46 30 77 50 29 87 55 31 96 59 32 117 74 36 143 95 46 152 105 48 134 93 48 86 58 38 46 34 26 44 32 27 56 41 33 53 39 31 51 37 29 51 37 30 47 34 28 50 37 32 50 40 36 59 46 42 63 50 44 68 55 47 74 60 49 73 61 49 71 58 49 67 55 49 65 55 52 61 52 49 
28 19 14 27 19 13 26 18 13 27 19 14 28 19 12 32 21 15 38 25 17 46 30 20 54 34 22 62 39 24 68 44 27 78 48 28 87 53 28 94 58 31 99 62 33 108 69 37 108 69 37 91 61 38 77 55 38 68 51 37 55 41 32 48 36 28 50 37 33 54 39 32 51 37 29 61 45 39 60 47 43 64 50 43 65 51 45 67 53 46 73 59 48 76 62 53 71 58 49 63 52 44 51 42 38 53 45 41 
26 19 13 27 19 13 26 18 12 25 17 12 26 17 13 26 17 12 29 20 12 37 24 17 50 31 21 58 35 23 70 42 24 80 46 24 100 59 27 106 62 27 108 65 31 117 73 36 118 78 39 110 72 39 92 62 36 78 54 36 73 53 36 69 50 36 63 48 34 53 38 28 47 34 30 73 55 48 69 49 40 70 51 42 71 54 44 63 50 43 67 52 46 65 53 46 66 52 46 63 50 41 64 50 40 66 53 42 
27 20 14 28 20 14 28 20 15 28 19 14 26 19 13 25 18 12 24 16 12 26 17 13 30 20 13 47 29 18 69 41 23 77 45 23 97 57 26 104 61 28 100 60 29 98 60 29 103 65 31 91 58 32 79 51 30 70 46 30 69 48 33 66 46 32 63 46 33 65 48 36 68 51 37 62 45 32 68 49 40 73 55 49 63 49 43 67 51 42 74 56 44 65 52 43 64 51 43 59 47 40 60 48 40 63 50 40 
27 20 14 25 19 13 25 18 13 27 19 13 25 18 13 25 17 12 24 17 11 24 16 12 24 16 12 26 17 12 36 23 14 48 29 17 56 32 17 69 40 21 78 45 22 89 53 26 94 56 26 83 51 26 72 47 27 63 41 26 51 36 26 46 34 26 46 35 28 49 37 31 53 41 34 53 40 31 57 43 33 49 36 30 62 45 39 64 47 39 63 48 40 69 53 47 60 46 41 69 53 44 63 50 41 57 45 34 
28 20 15 28 20 14 26 19 13 26 20 14 27 18 13 25 18 14 23 16 13 22 16 11 22 15 11 21 14 10 24 15 11 28 17 12 37 23 15 51 30 17 64 36 18 73 42 21 79 45 22 83 50 26 73 45 24 68 43 25 57 36 22 51 33 22 44 32 24 43 33 28 43 33 28 44 33 27 44 34 27 46 35 28 49 38 29 50 39 29 47 36 27 40 29 22 41 32 28 56 44 41 49 38 32 50 39 30 
26 19 14 27 19 14 29 20 15 27 20 14 26 18 13 25 17 12 24 17 12 24 16 12 22 15 11 21 14 10 20 14 8 20 13 8 20 13 9 21 13 9 27 17 11 41 24 15 54 32 18 63 37 20 61 36 20 58 33 20 53 33 20 46 30 21 41 28 21 40 28 22 36 29 24 36 28 24 36 28 24 35 27 24 36 29 24 38 30 26 38 29 25 41 32 26 43 33 27 35 27 21 38 30 27 45 36 32 
29 21 16 28 20 15 28 20 15 26 19 15 26 19 14 27 19 14 24 18 12 24 16 13 23 16 12 22 16 12 21 15 10 20 14 9 18 13 8 17 12 8 18 11 8 20 12 9 28 18 11 41 26 16 46 30 18 54 33 20 47 28 19 44 28 18 40 26 19 35 25 20 32 25 19 33 25 21 31 25 21 31 26 22 29 25 22 30 25 22 32 26 22 33 28 23 35 30 24 37 30 24 39 32 24 42 33 24 
