P3
36 64
255
49 46 50
44 44 48
43 43 48
43 43 48
44 43 47
43 44 47
43 43 47
41 43 47
42 43 47
42 43 47
42 43 48
41 43 47
42 43 47
42 43 47
41 42 47
42 42 47
41 42 47
41 42 47
41 42 47
40 43 47
41 43 47
40 42 47
42 43 47
42 42 47
41 42 46
41 42 46
42 43 47
41 43 46
42 43 47
43 43 47
42 43 47
43 43 48
45 43 48
43 43 48
43 43 48
42 43 47
46 46 51
45 46 49
44 45 50
45 45 50
46 45 50
43 46 48
44 45 49
43 45 50
45 45 49
45 45 49
43 45 49
42 44 48
43 44 49
43 44 49
44 44 49
44 44 49
43 44 48
43 44 49
42 43 49
43 44 48
43 44 49
42 44 49
44 44 49
43 44 49
44 44 49
44 45 49
44 45 49
44 45 48
44 45 50
45 45 50
44 45 50
45 45 50
45 44 50
44 46 50
45 45 50
45 45 49
49 49 52
48 48 52
47 48 52
47 47 52
47 47 51
47 47 51
46 47 51
46 48 52
45 47 51
46 47 52
43 46 50
45 46 50
45 46 50
45 46 51
45 46 51
44 46 51
44 45 50
44 46 50
44 46 50
44 45 50
45 45 51
44 46 51
44 46 50
45 46 50
45 46 50
46 46 51
45 47 51
45 46 51
46 46 51
47 46 51
46 47 51
46 48 52
47 47 51
47 47 51
47 47 51
46 46 51
50 51 54
50 50 54
48 50 54
49 50 54
49 50 54
48 50 54
49 50 54
49 49 55
48 49 54
48 49 54
48 49 53
47 48 53
47 48 52
47 48 52
47 48 53
47 48 52
47 48 53
47 48 52
46 47 53
46 47 53
46 47 52
46 47 53
47 48 53
47 48 52
48 48 53
48 49 53
48 48 53
48 49 54
47 48 54
48 49 53
49 49 53
49 49 54
48 49 53
48 48 53
48 48 53
47 48 53
51 53 56
52 52 57
52 52 56
51 52 56
51 52 57
52 51 57
50 51 56
50 51 56
49 51 56
49 50 55
50 51 55
49 50 55
49 50 55
49 50 55
48 49 54
49 50 54
48 49 55
49 50 55
48 49 54
48 48 55
49 49 57
47 48 56
49 49 55
49 50 55
49 50 54
50 51 56
50 50 55
49 50 55
49 50 55
50 51 55
52 52 56
50 51 55
50 51 55
51 50 56
50 50 55
50 51 55
54 55 59
55 54 60
54 54 59
54 54 58
53 54 58
52 53 58
52 53 58
51 53 58
51 52 57
51 52 58
51 52 57
51 52 57
51 51 57
50 51 56
50 51 56
51 51 58
50 51 57
50 51 56
50 51 56
50 51 56
49 51 58
48 51 57
50 51 57
51 51 57
51 52 57
51 52 57
52 52 57
51 52 57
51 52 57
52 53 58
52 53 57
53 53 57
52 53 57
52 52 58
52 52 58
52 52 57
55 56 60
55 56 60
55 56 60
55 55 60
54 55 60
53 54 60
52 54 61
52 54 59
51 54 58
52 53 59
52 53 58
52 53 60
52 53 58
52 53 58
51 53 58
52 53 58
52 53 58
51 53 59
51 52 59
50 52 58
50 52 58
51 53 59
52 53 59
52 53 58
52 53 60
52 53 58
52 53 58
52 53 58
53 54 59
53 54 58
54 54 59
54 54 60
54 54 59
53 54 60
53 53 59
53 54 58
57 58 63
57 58 63
57 58 63
56 57 63
56 57 62
56 56 62
56 56 62
55 56 61
52 56 59
53 55 60
54 55 60
54 54 61
53 53 62
54 54 61
54 54 61
53 55 60
53 54 59
53 54 60
52 54 61
51 54 60
50 55 59
52 54 60
54 55 60
54 55 60
54 55 61
54 55 59
54 55 59
54 55 60
54 55 60
55 56 61
54 55 60
55 56 62
55 56 61
55 56 62
55 55 62
55 55 60
58 59 64
58 58 65
57 58 64
58 58 64
57 58 64
57 58 63
56 57 62
56 57 62
57 58 63
56 57 62
56 56 63
55 55 63
55 55 63
55 55 63
55 56 62
56 56 62
54 56 62
54 57 63
56 56 64
54 56 63
54 56 63
52 56 62
54 56 62
56 57 62
55 56 61
55 56 62
55 56 62
55 56 61
55 56 61
56 57 62
56 57 62
56 57 62
57 58 62
57 57 64
57 58 62
56 57 61
58 60 65
59 60 66
59 60 65
58 59 66
57 60 65
58 59 65
58 59 64
57 59 64
56 59 63
57 59 64
58 59 64
57 58 65
57 58 66
56 57 65
56 58 65
57 57 65
56 58 66
55 58 65
57 58 65
57 58 66
57 58 65
56 58 65
56 58 65
56 58 64
56 58 63
56 58 64
57 58 64
56 58 63
58 58 64
58 59 64
56 58 63
57 59 64
57 59 65
58 59 65
58 59 64
57 58 64
62 62 67
61 61 67
60 61 66
60 61 67
60 61 66
58 60 67
60 61 67
59 61 66
58 61 67
60 60 67
60 61 67
60 61 67
60 60 68
59 60 68
58 60 66
59 60 66
58 61 66
58 60 67
60 61 67
60 61 67
60 60 68
60 61 68
57 60 67
58 60 66
57 60 66
57 60 67
60 61 67
58 60 65
59 59 67
59 60 65
59 60 65
59 61 66
58 60 66
58 61 66
58 61 65
59 60 65
61 62 69
62 63 68
61 62 67
61 62 67
62 63 68
60 62 68
62 62 70
61 61 69
60 62 68
62 63 68
61 63 69
62 62 68
62 63 68
61 62 69
60 62 68
59 62 69
59 62 69
60 62 69
62 62 70
62 62 70
62 62 69
62 62 70
62 62 70
60 62 69
59 62 69
60 62 69
61 62 67
61 62 67
61 62 67
61 62 67
61 62 68
60 61 66
60 61 67
59 61 67
58 61 66
60 61 66
62 62 70
63 63 70
63 64 69
63 64 68
63 64 69
62 63 70
63 64 71
63 63 71
63 64 70
63 64 69
63 64 70
63 64 70
63 64 70
63 64 71
61 64 71
61 63 71
61 64 72
63 64 70
63 64 69
63 63 71
64 64 71
63 64 70
62 64 71
61 64 69
61 64 71
61 63 70
63 63 71
63 63 71
62 63 70
62 62 70
62 63 69
61 63 68
60 62 67
62 63 68
62 63 68
61 62 67
64 64 70
64 65 70
64 65 70
64 65 71
63 65 70
64 65 71
64 65 72
65 66 72
65 65 73
65 65 73
65 65 73
65 66 73
64 66 73
65 65 74
63 66 73
64 65 73
64 66 74
64 66 73
65 65 73
64 66 73
64 65 73
65 66 74
64 66 73
63 66 73
64 65 72
65 65 73
65 65 72
65 65 72
64 65 71
61 65 71
62 64 70
63 64 69
63 64 69
63 64 69
62 63 69
62 63 69
64 66 71
65 65 71
65 66 72
65 66 72
65 66 73
66 67 74
66 66 74
67 68 73
67 67 75
67 67 75
67 67 75
66 67 74
65 68 75
66 68 76
65 68 76
65 68 76
65 68 76
65 68 76
65 67 76
64 68 76
65 68 75
66 67 75
65 68 76
66 67 75
67 67 75
66 66 74
67 67 74
67 67 73
66 67 72
63 66 73
63 66 73
65 66 73
64 66 71
65 66 71
64 64 71
63 64 70
66 66 73
67 67 74
66 67 75
68 68 76
68 68 76
69 69 77
68 69 77
69 70 75
69 70 76
68 70 76
68 69 77
67 69 78
67 70 77
67 70 79
67 70 79
67 70 78
67 70 79
67 70 79
66 69 78
67 70 79
67 70 77
67 70 77
68 70 78
68 69 79
68 69 77
69 69 76
69 69 77
69 69 75
68 69 75
66 69 76
66 69 76
67 68 74
67 67 74
66 67 72
65 66 72
65 65 72
67 67 74
68 68 75
68 69 76
69 69 78
69 69 77
70 71 78
70 72 79
71 72 79
70 73 78
71 72 78
70 72 80
69 72 80
69 72 81
69 72 81
70 72 81
69 72 81
69 72 81
69 72 81
70 72 81
69 72 80
69 72 80
70 72 80
71 72 80
70 72 81
71 71 79
71 71 79
71 71 79
70 71 77
70 71 79
68 71 78
67 70 78
69 69 78
69 69 76
68 69 74
67 68 73
66 67 72
68 69 75
70 70 79
70 70 80
71 71 80
72 72 80
72 74 81
73 74 81
74 74 81
74 75 81
74 74 83
73 74 83
72 75 83
72 75 83
71 74 83
72 74 83
71 74 83
71 74 83
71 74 83
71 74 83
71 74 83
71 74 83
71 74 83
71 74 82
71 74 83
72 74 82
73 73 82
73 73 81
73 73 81
73 73 82
71 73 81
71 72 82
71 71 81
71 71 79
69 70 77
68 69 74
67 68 73
70 71 78
72 72 81
72 72 81
74 74 82
75 75 83
74 76 83
76 76 84
76 76 84
77 77 84
77 77 85
76 77 85
75 77 86
74 77 86
74 77 86
74 77 86
74 77 86
73 77 86
73 77 86
73 77 86
73 77 86
72 76 85
74 77 86
74 77 86
73 76 85
74 77 86
74 76 85
75 75 84
75 75 83
75 75 84
75 75 84
75 75 85
74 74 83
73 73 81
72 73 79
71 71 77
69 70 75
72 72 80
74 74 82
75 75 83
77 77 85
77 77 87
78 78 86
79 79 87
79 79 88
79 79 89
79 79 89
78 79 88
76 79 88
76 79 88
77 80 89
76 79 88
75 79 88
75 79 88
75 79 88
75 79 88
76 80 89
75 79 88
76 79 88
75 79 88
76 79 88
77 80 88
76 79 87
78 79 88
78 78 87
78 78 87
78 78 88
77 77 87
76 77 84
75 75 83
74 75 82
73 74 80
71 71 78
75 75 84
76 76 84
78 78 86
79 79 87
80 80 88
81 81 89
82 82 90
82 82 92
82 82 92
81 82 92
80 83 92
80 83 91
80 83 92
79 83 92
79 83 92
80 83 92
78 83 92
77 84 93
78 83 92
79 83 92
79 83 92
79 83 92
79 83 92
79 83 92
79 82 91
80 82 91
81 82 91
82 82 91
81 81 91
81 81 90
80 81 88
80 80 88
78 79 85
76 77 85
75 76 82
74 75 80
77 77 85
79 79 87
81 81 89
82 82 90
83 83 91
84 84 92
85 85 93
85 85 94
85 85 95
85 86 96
84 86 95
83 86 95
84 87 96
83 87 96
83 87 96
84 87 96
83 87 96
83 87 97
83 87 96
83 87 96
83 87 96
84 87 96
83 87 96
83 86 95
84 87 95
84 86 93
85 85 93
85 85 93
85 85 93
84 84 93
83 83 91
83 83 91
81 81 90
79 80 87
77 78 85
76 77 82
80 80 87
81 82 89
83 84 93
85 85 94
87 87 93
87 88 95
88 88 95
88 88 96
88 89 97
87 90 97
88 91 98
87 90 98
88 91 99
89 92 101
89 92 101
88 92 101
87 91 100
88 92 101
87 91 100
89 92 101
89 92 101
88 91 100
88 91 100
88 91 98
87 90 97
88 90 97
89 89 97
89 89 97
88 88 96
87 87 95
86 86 94
85 85 93
84 84 92
82 83 89
81 81 88
79 79 85
83 83 89
85 85 91
86 86 95
88 88 95
90 91 96
91 92 97
92 93 98
92 93 98
93 93 99
93 94 100
93 95 100
94 95 101
94 95 103
94 97 104
95 96 104
94 97 106
94 97 106
94 97 106
94 97 106
94 97 106
96 96 106
94 96 104
94 95 104
94 95 101
94 94 101
94 94 100
93 94 100
93 94 99
91 92 98
91 91 97
89 90 96
89 89 95
87 88 93
86 86 92
84 84 90
82 81 87
88 88 91
89 89 93
90 91 95
92 93 97
94 95 99
96 95 100
97 97 101
97 98 102
98 98 102
98 99 103
99 100 104
100 101 105
101 101 106
101 102 107
102 102 108
102 103 108
102 102 109
101 103 109
102 103 110
102 102 110
102 102 107
101 102 107
100 101 106
99 100 105
99 100 104
98 99 103
98 99 103
97 98 102
96 97 101
96 96 99
95 94 98
93 93 97
92 91 96
91 89 94
88 87 91
86 85 88
92 91 91
94 93 94
97 96 97
98 97 98
102 99 99
103 100 102
103 101 102
104 103 103
104 103 106
104 104 106
106 105 106
106 107 108
107 107 108
109 108 109
110 109 110
110 109 111
110 110 112
112 110 114
112 110 114
111 109 113
111 109 111
110 108 111
108 107 110
107 106 109
107 105 108
105 105 108
104 104 106
103 103 105
103 102 103
102 101 101
101 99 100
99 97 98
98 96 97
96 93 96
94 91 93
92 89 91
100 95 92
102 98 94
104 100 96
105 102 98
107 103 100
109 105 101
110 106 102
111 107 105
111 108 106
113 110 108
115 111 109
116 113 111
118 114 112
120 115 113
121 116 113
122 117 114
124 118 116
123 118 117
124 118 116
122 117 115
121 116 113
119 115 112
118 114 112
117 113 111
115 112 110
113 111 108
111 109 107
110 108 105
108 106 105
108 105 102
107 104 100
106 102 99
105 100 97
103 98 94
100 95 92
97 92 89
108 100 94
111 102 95
112 104 98
114 107 100
116 108 101
118 111 102
119 112 104
120 113 107
122 115 109
124 117 110
125 119 112
128 121 113
131 122 115
132 123 115
135 125 117
137 126 118
139 127 120
141 128 121
141 128 121
137 126 119
133 125 118
132 123 116
130 122 115
129 120 114
126 119 112
123 117 111
120 116 109
119 114 107
119 112 106
118 111 104
116 109 103
114 108 100
113 106 98
110 103 94
108 101 93
103 97 90
118 106 92
119 109 94
121 110 97
131 114 98
146 120 95
137 119 99
131 118 103
134 121 106
143 125 107
134 123 111
138 125 113
141 128 115
144 130 116
147 132 118
150 134 119
154 136 121
157 138 123
158 141 124
161 143 125
155 138 121
150 135 119
147 132 118
144 130 117
141 128 115
137 126 113
134 124 111
131 122 109
128 120 107
127 118 105
125 116 105
125 115 102
123 114 100
120 112 98
118 109 95
114 106 91
111 103 89
125 110 87
127 113 91
131 115 93
135 117 96
136 119 97
137 121 99
139 122 102
141 125 105
143 127 108
146 130 110
150 132 112
154 135 115
158 138 117
163 141 118
167 144 120
173 147 122
176 150 124
178 153 126
178 152 125
174 149 122
167 144 120
162 141 118
157 138 117
153 135 115
148 133 112
144 129 109
141 127 108
138 125 105
137 123 103
135 121 100
133 119 99
131 117 97
129 116 93
127 113 92
123 110 89
120 107 85
131 112 82
135 116 85
137 118 87
141 120 91
143 122 93
145 124 95
147 126 97
150 129 100
153 131 103
157 134 106
161 137 109
167 141 111
173 145 114
180 150 116
187 155 120
194 160 122
199 163 125
203 166 128
201 165 127
196 160 122
188 155 118
179 151 116
172 146 113
166 142 111
160 138 108
155 134 105
151 131 103
147 129 100
145 127 97
144 125 95
141 123 93
139 121 90
137 118 88
134 115 86
131 112 83
127 110 80
136 112 74
140 115 76
143 118 79
146 120 82
149 122 85
151 124 88
154 127 89
157 130 92
161 133 94
167 137 97
172 141 101
179 145 104
188 151 107
197 159 112
208 167 117
219 174 122
228 182 128
232 186 132
230 184 131
221 176 124
209 168 117
198 160 111
188 153 107
179 146 103
171 141 100
165 136 96
160 133 93
156 130 89
154 128 86
151 125 84
149 123 83
146 120 81
144 117 79
140 115 76
137 111 74
134 109 71
141 108 61
144 111 66
147 114 67
151 117 70
154 119 74
157 122 75
160 125 76
164 127 79
169 132 82
175 136 84
182 141 88
191 148 91
201 156 98
215 167 104
229 180 113
245 195 125
253 209 139
254 216 144
254 212 143
248 198 130
234 183 115
217 170 104
203 158 97
192 149 92
182 142 87
175 136 83
169 131 80
163 128 77
161 125 75
157 122 72
153 119 70
151 117 68
148 113 68
144 110 67
142 108 64
138 105 62
140 100 51
143 103 55
147 106 57
151 108 58
155 109 60
159 113 61
162 116 63
167 120 65
172 124 66
180 130 69
188 137 73
199 146 78
213 158 84
230 173 95
249 193 112
254 216 129
254 240 136
253 250 157
254 244 142
254 222 134
251 198 115
233 177 98
216 161 86
201 149 79
189 138 73
180 131 69
173 125 66
167 120 63
161 116 61
158 113 60
155 110 59
152 107 57
148 105 56
145 102 55
142 100 53
138 97 50
122 79 43
124 80 44
130 84 45
138 88 47
142 91 47
146 93 49
150 96 50
155 99 51
160 103 52
169 110 54
180 118 57
193 130 62
210 145 68
229 164 79
250 190 98
254 224 116
253 253 162
254 255 248
254 254 198
254 238 122
253 204 112
242 178 90
222 158 76
205 141 67
192 129 61
181 120 57
172 112 54
164 107 52
158 102 50
153 99 51
150 96 50
145 93 49
143 91 48
140 89 47
137 87 44
135 84 43
83 53 39
88 57 41
92 59 40
84 53 36
76 46 31
75 45 29
79 46 29
84 49 29
97 56 34
105 60 34
121 69 37
146 85 43
175 106 50
204 131 60
228 158 72
248 192 95
252 231 122
254 246 180
253 238 145
252 209 105
241 176 87
218 149 71
195 126 60
177 110 53
163 99 49
152 90 47
143 85 45
136 80 45
130 77 45
126 75 43
123 72 44
120 71 43
118 70 43
115 69 42
113 67 41
110 66 40
37 30 30
39 31 31
41 34 33
40 34 33
39 32 32
38 32 30
38 32 32
38 32 32
41 34 34
42 34 33
42 33 31
46 34 32
53 38 34
66 43 37
76 46 38
94 54 40
116 68 46
129 75 48
118 67 47
96 56 43
75 46 38
64 42 37
54 38 36
49 36 34
45 35 34
42 34 34
40 33 33
41 34 35
38 33 35
38 33 35
39 34 35
37 32 34
37 32 33
38 32 33
35 30 32
33 29 30
53 48 48
51 47 47
51 46 45
48 44 44
47 43 43
49 44 44
49 45 45
50 46 46
49 45 45
51 47 46
52 47 47
56 48 48
63 52 51
72 56 52
78 59 54
88 64 58
94 65 57
111 72 58
98 66 58
86 59 56
75 57 53
68 54 52
64 53 53
63 54 53
59 52 51
56 50 51
54 49 49
53 49 49
53 48 50
47 42 46
44 40 44
47 42 44
47 42 46
48 44 46
43 40 42
42 38 40
40 38 37
38 36 35
38 34 34
38 35 34
44 41 39
42 38 38
49 45 45
53 49 50
56 51 51
61 56 55
62 56 54
64 56 54
68 58 55
70 58 54
76 60 56
80 60 56
86 65 58
99 67 56
95 68 59
86 65 58
83 65 60
80 65 60
76 64 61
68 60 58
63 55 56
59 54 53
57 53 51
56 52 52
55 51 51
52 49 50
51 47 48
49 45 46
47 44 47
45 42 44
42 38 41
37 34 37
41 37 38
45 42 41
50 44 43
50 45 45
49 45 44
55 50 49
60 53 52
58 52 52
53 48 47
60 55 53
63 55 53
60 51 51
69 59 57
69 58 55
80 64 58
80 62 56
76 58 54
72 56 54
66 52 50
60 48 47
53 44 43
56 47 47
59 50 49
62 54 53
52 47 47
54 49 49
57 52 52
65 60 58
68 61 60
72 64 62
69 61 60
66 60 59
64 58 57
60 55 55
58 54 54
53 49 49
38 35 37
46 42 41
46 41 40
57 51 49
59 53 53
56 51 48
55 50 50
59 55 53
60 56 54
60 56 53
58 53 50
65 58 56
68 58 54
69 57 54
80 64 58
82 64 55
94 68 56
97 72 59
86 66 58
80 63 59
66 56 53
61 53 52
62 53 53
62 56 55
62 56 55
58 53 53
52 48 48
55 51 52
54 51 52
45 41 44
38 35 37
39 37 39
40 36 40
51 47 49
54 50 49
48 44 46
40 38 40
40 38 40
47 43 43
51 46 45
59 52 51
62 56 53
61 56 54
69 60 57
62 56 53
59 54 51
59 53 51
51 44 44
55 47 46
55 47 46
55 46 43
61 51 45
81 61 53
118 84 64
122 87 66
82 65 55
77 63 56
68 56 52
65 55 53
57 51 48
64 57 56
62 55 54
60 56 55
58 54 51
56 53 53
58 54 53
56 53 54
49 47 48
41 39 40
43 40 40
41 38 39
43 40 42
43 42 47
45 43 48
48 44 49
50 46 47
59 52 50
63 56 53
64 56 53
83 72 64
83 73 65
78 70 64
76 66 62
72 64 60
63 54 51
63 52 50
58 49 46
52 42 40
70 54 49
67 51 46
61 47 44
53 45 43
57 49 47
65 58 54
68 60 56
70 62 59
80 70 65
81 71 67
68 62 60
58 54 54
62 56 55
63 57 55
63 58 56
62 58 55
59 55 55
49 46 47
45 42 44
42 40 42
51 49 52
53 50 52
51 47 51
51 47 52
61 55 54
76 69 62
79 71 64
83 73 64
81 72 64
78 67 60
81 69 62
81 69 61
89 72 64
92 73 63
94 72 61
85 64 54
104 76 59
104 77 61
91 70 59
70 55 50
65 54 49
63 54 50
66 58 54
64 57 54
60 53 51
64 59 57
63 58 57
68 62 60
68 62 60
64 59 57
63 58 57
60 54 52
56 51 51
50 46 47
47 44 44
43 41 43
64 58 58
59 54 55
61 55 53
67 60 58
60 56 55
63 59 54
63 58 56
67 60 56
64 56 51
72 62 57
82 70 62
77 65 59
93 75 66
98 76 64
101 76 60
99 72 57
103 75 58
104 76 59
89 66 56
75 61 53
63 53 48
60 52 49
63 54 50
65 58 53
52 49 48
47 44 44
54 49 50
56 52 52
49 46 44
55 51 50
57 53 54
55 51 50
55 51 49
55 50 48
53 49 48
48 45 44
70 63 58
69 61 56
67 61 58
82 71 64
77 68 61
58 53 52
48 45 45
45 43 44
49 48 50
41 40 42
41 39 41
61 53 54
77 63 57
94 74 64
125 91 67
155 109 70
174 129 86
168 123 79
155 112 74
130 94 67
119 89 65
95 75 60
76 64 56
60 53 49
68 60 56
64 59 54
58 51 50
55 49 49
54 49 50
54 49 49
55 49 48
57 51 50
47 43 43
42 40 39
51 46 45
53 47 45
61 54 51
62 56 52
60 54 51
63 56 53
70 63 58
68 62 57
67 60 56
61 56 54
43 41 42
38 38 40
42 41 41
47 43 42
47 39 37
65 51 43
106 72 52
145 106 72
155 116 80
140 106 74
109 79 56
92 67 53
94 71 54
90 69 55
87 70 58
80 66 57
72 61 53
67 58 53
66 59 53
63 56 51
67 60 57
69 62 57
71 63 59
68 60 56
64 57 53
61 55 51
60 53 51
55 51 51
42 39 41
41 39 40
45 41 42
56 50 49
60 53 49
59 53 49
48 44 40
48 42 40
46 42 39
44 40 37
35 32 32
20 20 21
19 19 20
19 18 19
27 22 22
60 43 35
99 72 52
121 87 59
133 91 64
103 72 52
90 64 48
78 59 47
82 65 54
83 67 57
85 70 61
82 69 59
84 69 60
80 68 58
73 63 56
72 62 56
62 55 50
53 46 44
50 45 45
50 46 45
48 43 43
56 51 49
47 45 46
49 46 48
44 41 44
44 42 45
38 35 36
39 35 38
38 34 37
47 43 44
47 43 45
36 35 39
30 29 34
27 27 31
28 28 32
28 26 31
27 24 26
34 27 26
52 36 29
74 52 37
71 50 38
83 59 47
75 57 46
56 47 43
51 45 42
57 51 48
61 53 48
55 49 44
53 47 45
59 52 49
56 50 47
51 44 42
53 45 43
55 48 47
60 53 50
59 52 49
55 49 46
39 35 37
52 45 43
44 39 38
43 38 40
49 45 45
49 44 42
54 46 44
55 46 45
56 49 45
51 44 42
40 37 39
31 29 32
32 31 36
36 34 38
36 32 37
31 27 32
26 23 26
22 20 23
25 21 25
22 19 21
37 28 26
36 27 25
35 28 26
42 34 33
45 36 32
42 37 35
49 43 41
59 54 49
53 48 44
48 43 41
50 44 42
58 52 48
59 51 48
61 54 50
57 49 47
46 42 42
55 48 47
80 66 49
82 67 50
81 66 50
76 63 49
68 56 44
64 52 42
61 50 41
58 48 40
50 41 35
27 23 25
23 20 22
28 24 26
32 27 27
35 28 28
38 31 31
30 25 25
33 27 25
33 28 28
26 22 24
28 24 26
24 21 23
25 22 24
29 25 24
39 33 30
37 30 28
33 30 28
30 28 27
29 26 24
32 27 26
33 28 26
37 33 32
43 38 36
44 39 36
51 44 40
62 53 48
57 49 48
81 67 49
80 67 49
81 67 51
83 68 52
84 68 52
85 67 53
86 69 52
87 70 53
88 70 51
77 62 45
64 51 38
41 32 25
35 27 24
43 31 27
44 30 26
46 33 27
37 28 25
52 37 30
53 39 34
54 39 34
41 33 32
38 32 32
43 33 31
32 26 26
37 31 29
41 36 32
36 32 30
35 30 27
40 32 28
37 30 29
31 26 25
27 24 23
27 23 23
33 29 29
32 29 28
27 25 25
72 59 45
74 61 46
75 63 48
75 62 48
77 64 49
79 66 51
80 66 51
83 67 51
85 68 51
90 70 49
97 72 47
107 76 45
82 57 35
50 34 29
46 33 27
59 40 30
49 34 27
30 23 23
34 26 24
38 29 26
27 23 23
31 23 23
33 25 24
30 24 25
28 24 25
30 26 25
33 29 29
33 29 29
25 23 23
20 18 19
23 20 21
31 27 26
37 32 31
36 32 30
34 29 28
27 25 25
62 51 40
65 54 43
68 57 43
71 59 45
77 64 49
79 64 49
79 65 50
81 66 50
84 67 50
90 70 47
100 74 46
115 80 44
122 81 44
56 38 30
40 28 24
44 32 26
52 36 29
58 40 33
63 43 33
55 39 32
51 39 34
37 30 27
35 30 28
47 38 36
50 39 35
41 33 31
40 34 33
38 33 32
35 30 30
31 28 29
42 36 35
42 36 36
35 31 33
31 28 28
35 30 31
29 26 27
57 48 38
64 53 41
65 55 43
69 57 45
71 60 46
71 60 47
72 61 49
73 60 50
76 62 48
78 63 47
87 66 47
103 74 46
127 86 45
82 56 33
43 29 24
44 30 25
44 29 23
51 35 27
52 35 29
54 37 30
57 41 34
58 42 36
59 45 38
50 39 35
44 35 35
47 40 38
51 43 40
48 40 39
46 41 39
47 42 42
59 49 47
47 41 45
35 33 36
39 36 39
26 23 28
26 24 25
29 21 15
38 29 21
50 38 29
58 45 35
67 54 40
72 59 44
74 61 46
75 62 48
76 61 46
79 61 43
84 63 43
91 65 42
115 77 42
153 102 50
139 97 48
81 57 34
40 28 21
40 29 25
47 33 28
42 32 27
57 42 34
53 41 37
47 38 37
52 40 38
57 45 42
56 46 45
58 47 44
53 45 47
37 36 39
29 30 36
33 33 40
33 33 41
27 28 34
36 37 46
37 37 45
36 35 42
26 18 13
26 19 13
28 19 13
34 24 16
43 29 21
50 34 24
55 38 28
60 43 29
69 46 31
79 52 34
86 56 32
98 61 33
110 66 33
132 81 38
160 104 48
178 122 53
154 107 53
94 64 41
47 36 30
32 26 25
42 33 32
40 32 31
38 30 29
34 29 30
29 25 28
31 29 33
29 29 35
38 36 44
40 40 47
41 41 47
42 42 48
40 41 46
49 47 52
48 47 50
52 49 54
50 48 51
28 19 14
27 19 13
26 18 12
27 19 14
29 20 12
33 22 15
40 26 18
51 33 22
62 39 25
74 46 28
83 53 32
92 57 32
105 63 32
111 67 34
117 73 37
127 81 42
125 81 42
102 69 42
80 59 40
65 52 39
48 40 34
42 35 30
34 30 31
40 33 33
37 31 31
48 42 44
45 42 48
50 46 49
46 42 47
47 43 46
53 51 51
59 55 56
55 52 54
43 43 46
34 34 39
38 38 43
26 19 13
27 19 13
26 17 12
25 17 11
26 16 13
26 18 12
30 20 12
39 25 17
54 33 22
66 39 25
82 49 27
96 55 27
120 70 31
130 75 32
133 80 37
143 89 42
141 92 45
128 85 45
107 73 41
84 60 40
73 56 40
64 50 39
55 46 37
43 36 32
30 26 29
46 41 46
54 45 46
49 42 44
49 45 47
37 37 41
48 44 49
42 42 47
42 40 46
43 41 43
44 41 41
45 42 42
27 20 14
28 20 15
28 20 14
27 19 14
26 18 12
25 17 12
24 16 12
25 16 13
30 19 13
50 30 19
78 46 25
91 53 26
114 67 30
129 75 33
123 72 33
121 73 33
130 82 38
114 73 38
96 62 35
80 54 34
71 51 36
61 46 34
57 44 35
58 47 39
58 48 40
50 42 35
49 41 41
58 51 55
45 42 46
49 44 45
61 52 49
48 45 47
48 45 48
39 38 43
40 38 39
46 43 41
27 20 14
25 18 12
25 18 13
27 19 14
26 18 13
24 17 11
23 16 10
22 15 11
22 14 11
25 17 12
38 23 15
52 31 18
63 36 19
82 46 24
94 54 25
112 66 30
115 68 30
105 65 32
92 59 33
78 50 31
63 43 30
54 40 29
49 39 32
49 40 35
52 43 38
52 43 36
51 43 36
44 36 33
47 40 39
46 39 38
43 39 41
51 45 49
42 39 45
48 44 45
46 43 43
43 40 36
28 20 15
28 20 14
26 18 13
26 19 14
27 18 13
25 17 13
22 16 12
20 14 10
20 14 10
19 13 9
22 14 10
27 17 11
38 23 15
54 31 17
70 39 19
85 48 24
95 54 25
102 61 30
90 55 29
85 53 30
69 43 26
60 40 26
52 38 29
50 40 34
47 38 34
47 38 32
47 38 32
48 39 32
49 40 33
47 41 33
41 36 29
32 29 25
27 27 29
41 40 45
37 35 37
33 32 31
26 19 14
27 19 15
29 20 14
27 20 14
26 18 14
25 17 12
24 16 11
23 15 11
21 13 10
20 13 9
19 13 8
19 12 7
18 11 8
20 12 8
27 16 11
43 25 14
58 34 19
69 41 22
72 43 23
70 41 24
60 38 23
54 35 25
49 34 25
45 32 25
43 34 29
42 33 29
41 33 29
39 31 27
41 33 29
42 35 31
41 34 31
43 35 31
44 36 32
35 29 25
36 31 29
37 32 32
29 21 16
28 20 15
28 20 15
25 19 15
25 19 13
25 18 12
24 17 11
23 16 12
22 15 11
21 15 11
19 14 9
18 13 8
16 11 7
15 10 7
15 9 6
18 11 7
29 18 11
46 28 17
54 33 20
65 38 23
53 31 21
52 33 20
48 31 23
41 30 24
38 30 23
37 29 25
36 29 25
36 31 27
35 31 27
35 30 27
36 31 27
38 33 29
38 34 28
40 34 28
39 34 27
40 35 26
