P3
36 64
255
27 0 0
25 0 0
42 43 48
43 43 47
43 43 45
43 44 47
42 43 47
39 42 46
42 43 48
42 43 47
42 43 47
42 43 47
41 42 46
41 42 46
42 42 47
41 42 46
41 41 47
41 41 47
40 41 47
41 42 47
42 43 47
40 42 47
42 43 47
42 42 46
42 42 46
41 42 46
42 42 47
42 43 47
41 43 47
42 43 47
42 43 47
42 43 47
44 43 48
43 43 47
43 44 47
42 43 47
46 46 51
45 46 50
43 45 50
45 45 49
46 45 50
42 46 47
44 45 49
44 44 49
45 45 49
44 45 49
43 44 49
40 44 47
43 44 49
44 45 49
43 44 49
44 44 48
42 43 47
43 44 48
42 43 49
42 43 48
43 44 49
41 43 48
43 44 48
43 44 48
43 44 48
44 45 49
43 44 48
44 45 47
43 44 49
46 45 50
44 44 50
45 45 50
46 44 50
44 45 50
46 45 51
43 44 47
49 49 53
47 47 51
47 47 52
47 47 52
47 47 51
46 47 50
45 46 50
45 47 52
45 47 50
46 47 51
43 46 49
45 46 50
45 46 49
45 46 50
45 46 51
44 46 50
44 45 50
44 46 51
44 45 50
42 45 50
44 45 50
44 45 50
44 45 49
44 46 50
45 46 50
45 46 50
44 47 50
44 46 50
45 46 51
46 46 51
47 47 52
46 48 52
46 47 51
46 46 51
47 46 51
45 46 50
49 50 53
50 50 54
48 50 53
48 49 53
49 49 53
48 49 53
49 50 54
49 49 54
47 48 54
47 48 53
47 49 53
46 48 53
47 48 52
46 47 51
47 48 53
46 47 52
46 47 52
46 48 52
46 46 53
46 47 52
46 46 52
46 47 53
46 47 52
46 47 51
48 48 52
47 48 52
48 48 53
48 48 53
48 48 54
46 49 52
48 49 52
48 48 53
48 49 52
48 48 53
48 48 53
48 48 53
50 52 56
51 51 56
50 51 55
51 52 56
51 52 57
52 51 57
50 51 55
50 51 56
49 50 56
49 50 55
49 50 54
49 49 55
49 50 55
48 49 54
48 49 53
48 49 53
48 49 54
49 50 55
48 49 54
48 48 55
48 48 56
47 48 55
48 49 54
49 49 54
48 49 54
50 51 56
49 50 54
49 50 54
49 50 54
49 50 54
52 51 56
50 51 55
50 51 55
50 50 55
50 50 55
50 50 55
53 55 59
55 54 60
54 54 59
54 53 58
53 54 57
51 52 57
52 53 57
51 53 58
51 52 56
50 52 57
51 52 57
51 52 57
51 52 57
50 51 56
50 51 56
50 50 57
49 51 56
49 51 56
50 51 56
50 51 56
47 51 58
47 51 58
50 50 57
51 52 56
51 52 56
51 51 57
51 51 57
51 52 57
51 52 57
52 53 57
51 53 57
52 53 57
52 53 57
52 52 58
51 52 56
52 52 57
55 56 60
55 56 60
55 56 60
55 55 59
54 55 60
52 54 59
52 54 60
52 53 58
51 53 58
52 53 59
52 53 58
52 53 59
52 52 59
52 53 58
51 53 58
52 53 58
53 54 59
51 53 58
51 52 58
51 52 57
50 52 59
50 53 59
53 53 60
52 53 58
52 53 59
51 53 58
51 53 58
52 53 58
53 54 59
53 54 58
54 54 58
54 54 59
53 54 58
53 54 59
52 53 59
53 53 59
57 57 62
56 58 63
57 58 62
56 57 63
56 56 62
55 56 62
55 56 62
55 56 61
52 55 59
53 55 60
54 55 60
53 53 61
53 53 62
53 54 61
54 54 61
53 55 60
53 54 59
53 54 60
51 54 62
51 54 60
50 54 59
52 54 60
54 55 60
53 54 59
53 54 61
53 54 59
54 55 59
54 55 60
54 55 60
55 56 61
54 55 60
55 55 62
54 56 61
55 55 62
54 55 62
54 55 60
57 58 64
57 58 65
58 58 64
57 58 64
56 58 63
57 58 63
56 57 62
56 57 62
57 58 63
55 56 61
55 56 63
55 55 63
54 54 62
54 54 62
55 56 62
55 56 61
52 56 61
54 56 62
56 56 64
54 56 63
52 56 62
51 56 62
54 56 62
55 56 61
55 56 61
55 56 62
55 55 62
53 56 60
55 56 61
56 57 62
56 57 62
56 57 62
56 57 61
57 57 63
56 58 61
56 57 61
57 60 65
60 60 66
58 60 65
58 60 65
57 60 64
58 59 64
58 59 64
58 59 64
55 58 63
55 58 63
57 58 64
57 57 65
56 58 65
56 57 65
54 58 64
57 57 65
57 57 65
54 57 64
56 57 65
58 58 66
57 57 65
56 58 64
57 57 64
57 58 63
56 58 62
54 58 62
57 57 64
55 58 63
57 58 63
58 59 64
55 58 63
57 59 64
57 59 65
58 59 64
58 59 64
56 58 63
62 61 67
61 61 67
60 61 66
60 61 67
59 61 66
58 60 66
59 61 66
58 60 65
57 60 66
59 60 66
60 60 66
60 61 66
59 59 67
59 60 68
58 59 66
58 59 66
58 61 66
57 59 67
59 60 67
58 60 66
59 60 67
59 60 68
57 60 67
57 60 65
57 60 65
57 60 66
59 60 66
57 60 65
59 59 66
59 60 65
59 60 65
59 60 65
58 60 66
58 60 66
58 61 65
59 59 65
62 62 69
62 63 68
61 62 67
60 61 67
63 62 69
60 62 68
62 62 69
60 61 68
59 62 68
62 62 68
61 63 69
61 62 68
62 62 68
61 62 69
60 62 68
59 62 68
59 62 68
60 62 69
62 62 70
62 63 70
61 62 69
61 62 69
61 62 69
59 62 68
59 62 68
59 62 68
61 62 67
61 62 67
61 62 67
61 61 67
61 61 67
60 61 66
60 61 66
59 61 66
58 61 66
60 61 67
62 62 70
63 63 70
62 63 68
62 63 68
63 64 69
61 63 70
63 63 71
63 63 71
63 64 69
63 64 69
63 63 70
63 63 69
63 64 69
62 63 71
61 64 71
60 63 70
60 64 71
63 64 70
62 63 68
62 63 70
63 63 71
63 64 69
62 63 71
61 64 69
61 64 71
61 63 70
62 62 70
63 63 70
62 63 69
62 62 70
62 63 69
60 63 67
59 62 67
61 63 68
62 63 68
61 62 67
64 65 70
64 65 70
64 65 70
64 64 71
64 65 70
64 65 70
64 65 72
65 66 71
65 65 73
64 65 72
65 65 72
65 66 73
65 65 73
64 65 73
62 65 72
64 65 73
65 65 75
65 65 73
65 65 73
65 65 73
65 65 73
65 65 73
64 65 73
62 65 73
62 65 72
64 64 72
65 65 73
64 64 72
63 65 70
61 65 71
63 64 69
63 64 69
63 64 69
63 64 69
62 62 69
62 63 69
65 66 71
65 65 70
65 66 71
65 66 71
64 66 72
66 67 73
65 66 74
66 67 72
66 66 74
67 67 75
67 67 75
66 67 74
64 67 74
66 67 76
65 67 75
64 67 75
64 67 75
64 67 75
65 67 76
64 67 75
64 67 74
66 67 75
64 67 75
65 67 74
66 66 74
66 66 74
66 66 73
66 67 72
65 66 72
63 66 73
63 66 73
64 66 72
64 66 71
64 65 70
64 64 71
63 64 70
66 67 72
66 67 73
66 67 75
67 67 76
68 68 76
68 68 76
68 69 77
68 70 75
69 70 76
68 69 76
68 69 77
67 69 77
67 70 77
67 70 78
66 70 78
67 70 77
66 69 78
67 70 79
66 69 78
66 69 78
67 70 77
66 69 76
68 69 78
69 69 78
68 69 77
69 69 76
69 69 77
69 69 74
68 69 74
65 69 75
66 69 76
66 68 74
66 67 73
65 67 72
65 66 72
65 65 72
67 67 74
68 68 75
67 69 76
68 69 77
69 69 77
69 70 78
70 71 79
71 71 79
69 72 77
71 71 77
70 71 79
69 71 80
69 72 81
68 72 81
69 72 81
69 72 81
69 72 81
69 72 81
69 72 80
69 72 79
69 72 79
70 72 79
71 71 80
69 72 81
70 71 79
71 71 79
71 71 79
70 71 76
69 70 78
67 70 78
67 70 77
68 69 77
68 68 76
68 69 74
67 68 73
66 67 72
68 69 75
70 70 78
70 70 79
71 71 81
71 71 80
71 73 80
72 73 80
74 74 80
74 75 80
74 74 82
72 73 82
71 74 82
71 74 81
71 74 83
72 73 83
71 74 83
71 74 83
70 73 82
71 73 83
71 74 83
71 74 83
70 74 82
71 74 81
70 73 82
73 73 81
73 73 81
73 73 81
73 73 81
72 72 82
70 73 80
70 71 81
71 71 81
71 71 79
69 70 77
67 69 74
67 68 72
70 70 77
72 72 80
72 72 81
73 73 82
74 74 82
74 75 83
75 76 84
76 76 83
76 76 84
76 76 85
75 76 84
73 76 85
74 77 86
73 76 85
73 76 85
73 76 85
73 76 85
73 76 85
73 76 85
72 76 85
72 76 85
73 76 85
73 76 85
73 76 85
73 76 85
74 75 84
75 75 83
75 75 83
75 75 83
75 75 83
74 74 84
73 73 83
72 72 80
72 72 79
70 71 76
68 69 74
72 72 80
74 74 82
74 74 82
76 76 84
76 76 86
78 78 86
78 78 86
78 78 87
79 79 89
79 79 88
77 78 87
76 79 88
75 79 88
76 79 88
75 79 88
75 79 88
75 79 88
75 79 88
75 79 88
75 79 88
74 79 88
75 79 88
75 79 88
75 79 88
76 79 87
76 78 86
77 78 87
78 78 86
78 78 86
77 77 87
76 76 86
76 76 84
75 75 83
74 74 81
72 73 79
70 71 77
74 74 84
76 76 84
77 77 85
77 77 85
78 80 87
80 80 88
81 81 89
81 81 91
81 81 91
80 82 91
79 82 91
79 82 91
79 82 91
79 82 91
78 82 91
79 82 91
77 82 91
76 83 93
77 82 92
78 82 91
78 82 91
78 82 91
78 82 91
78 82 91
78 81 90
79 82 91
80 81 91
81 81 91
80 80 90
81 81 90
80 80 88
79 79 87
78 79 84
75 77 84
75 75 82
73 74 79
77 77 85
79 79 87
80 80 88
82 82 90
82 82 90
83 83 91
84 84 92
85 85 94
85 85 95
85 85 95
84 85 95
83 86 95
83 86 95
82 86 95
82 86 95
84 87 96
82 86 96
82 86 97
82 86 95
82 86 95
82 86 95
83 86 95
82 86 95
81 85 94
83 86 95
82 84 93
84 84 92
85 85 93
84 84 92
84 84 93
83 83 91
83 83 91
81 81 89
79 80 87
77 77 84
75 76 82
79 79 87
81 81 89
82 83 92
84 84 93
86 86 93
87 87 95
87 87 95
88 88 96
88 88 96
87 89 97
87 90 97
86 89 98
87 90 99
88 91 100
88 91 100
87 91 100
86 90 99
87 91 100
86 90 99
88 91 100
88 91 100
87 90 99
87 90 99
87 90 98
86 89 96
86 88 96
88 88 96
88 88 96
87 88 94
86 86 94
85 85 93
85 85 93
83 83 92
81 81 89
80 81 87
79 79 84
82 82 89
84 84 91
86 86 95
87 87 95
89 90 95
90 91 97
91 92 97
91 92 98
92 92 98
92 93 99
91 94 99
93 94 100
93 94 102
93 96 103
93 95 103
93 96 105
92 96 105
92 96 105
93 96 105
92 96 105
94 95 104
93 95 103
93 95 103
92 94 100
92 93 100
92 93 100
92 92 99
92 93 98
91 91 97
90 90 96
89 90 96
88 88 94
86 87 92
85 85 91
83 83 90
82 81 86
87 87 91
88 89 93
89 90 94
91 92 96
93 94 98
95 94 99
95 95 100
96 97 101
96 97 101
97 98 102
98 99 103
99 100 104
99 100 105
100 100 106
101 101 107
101 102 107
100 101 109
99 101 109
101 101 109
101 101 109
100 101 106
100 100 106
99 100 105
98 99 104
98 99 103
97 98 102
97 98 102
96 97 101
95 96 100
94 94 99
94 93 98
91 92 96
91 90 95
90 89 94
87 86 91
85 85 88
91 90 91
93 92 95
95 95 97
97 97 99
100 98 100
101 99 102
101 100 103
101 101 102
103 102 107
102 103 106
104 105 105
104 106 107
105 106 107
107 107 109
108 107 110
108 108 111
108 108 111
109 108 113
109 108 113
109 107 112
108 108 110
107 107 110
106 106 110
105 104 109
105 104 109
104 104 108
102 102 107
101 102 106
101 101 103
100 100 102
99 99 101
97 97 99
96 95 98
94 92 96
92 90 93
91 88 91
98 94 91
101 97 94
102 98 96
104 101 99
106 102 100
107 103 100
108 105 102
108 106 104
108 107 106
110 108 107
112 110 109
114 112 110
115 112 111
117 114 112
119 114 112
119 115 113
121 116 115
120 116 116
121 116 116
119 115 114
119 115 113
116 113 112
116 113 112
114 112 111
112 110 109
111 110 108
109 108 107
108 107 104
106 105 105
106 104 101
105 102 100
105 101 99
103 99 96
101 97 94
98 94 92
96 91 89
106 99 94
109 100 95
110 103 98
112 106 100
113 107 101
115 109 102
117 110 103
119 112 107
120 114 109
121 115 110
122 117 112
125 119 112
128 120 114
129 121 115
131 123 116
132 124 117
135 124 119
136 125 121
136 125 120
133 123 118
130 123 117
128 121 115
128 121 115
127 119 113
123 117 112
120 115 110
118 114 108
117 113 107
117 111 106
116 109 104
115 108 103
113 106 100
111 105 98
108 102 94
106 99 94
101 96 90
116 104 93
117 107 95
119 109 98
126 112 99
147 119 95
139 119 99
130 118 103
129 118 107
140 124 108
131 122 111
134 123 113
137 126 115
141 128 115
143 130 117
146 132 118
150 133 120
152 135 123
153 138 124
154 138 124
151 136 121
146 132 120
143 129 118
140 128 117
138 126 115
134 124 113
131 122 111
128 120 109
126 118 107
124 116 106
123 114 105
123 114 103
121 112 101
119 111 98
116 108 96
113 105 92
109 101 90
123 109 89
125 112 92
129 115 94
136 117 97
136 119 98
135 120 100
138 121 103
139 124 105
141 126 109
143 129 111
148 130 113
151 133 116
154 136 117
160 139 118
163 142 120
168 144 122
172 147 124
173 150 126
173 149 125
169 147 122
163 142 120
158 139 118
154 136 117
150 133 116
145 132 114
141 128 110
139 126 109
135 124 106
134 121 104
133 120 102
131 118 100
129 116 98
127 115 95
125 112 93
120 109 90
117 106 87
130 112 84
133 115 87
136 117 88
139 120 93
141 122 96
143 123 97
145 126 99
148 128 101
151 131 105
154 133 107
159 136 110
163 140 113
169 144 115
176 148 117
182 152 120
188 156 122
193 159 125
196 162 127
195 161 126
190 157 123
182 152 119
174 148 117
167 145 114
163 141 112
157 137 110
152 133 107
148 130 105
145 128 101
144 126 99
141 125 96
139 122 94
137 120 92
135 118 90
132 115 88
129 112 85
125 109 82
135 112 77
139 115 78
142 118 82
145 121 86
147 122 88
150 125 91
153 127 92
155 130 95
159 133 97
164 136 99
169 141 104
176 145 106
184 150 109
192 157 113
202 164 118
212 170 123
220 177 127
224 180 131
221 178 130
214 172 124
204 165 118
193 158 113
184 151 110
177 145 107
169 141 103
162 136 98
158 133 96
154 131 92
151 128 89
149 125 88
147 123 86
145 120 84
142 118 81
139 115 79
136 112 77
133 110 73
140 110 63
143 113 68
147 116 70
151 118 73
153 120 77
156 123 79
159 126 80
163 129 82
167 133 85
173 137 88
180 141 92
189 148 95
198 156 100
211 165 107
224 177 114
239 189 123
251 202 137
253 208 141
253 205 139
243 192 128
227 179 115
212 167 106
199 157 100
189 149 96
180 142 91
173 137 86
167 132 83
162 128 80
159 125 78
156 123 76
152 120 74
150 118 72
147 115 71
143 112 69
141 109 66
137 106 65
140 103 54
143 106 57
149 109 59
152 112 60
156 113 63
160 116 64
163 119 66
167 123 69
172 127 70
180 132 73
188 139 77
198 147 82
211 158 88
227 173 98
246 190 114
254 212 131
254 233 140
254 246 141
254 237 142
254 217 136
250 196 116
231 177 100
214 161 89
199 149 82
188 140 77
180 133 72
173 128 70
167 123 67
162 120 64
158 116 63
156 113 63
153 110 60
149 108 59
146 106 58
142 103 56
139 100 54
134 88 45
138 91 46
141 93 48
146 97 49
150 99 50
153 101 52
157 104 54
163 108 54
170 112 56
178 119 58
189 128 62
201 140 67
218 154 73
235 173 86
253 196 105
255 226 122
254 253 153
254 255 242
253 255 185
254 236 127
254 204 114
241 179 92
222 160 78
205 144 68
193 132 63
182 124 60
174 116 55
166 111 54
161 107 53
156 103 53
152 100 51
148 98 49
146 95 49
142 93 49
140 91 46
137 88 45
91 59 41
94 61 43
98 62 41
103 65 44
106 65 42
111 66 42
115 68 42
121 71 41
125 73 43
135 78 43
151 87 46
167 100 50
190 118 54
215 142 65
243 173 81
254 210 107
253 250 139
254 255 238
253 254 178
254 229 112
252 194 100
233 165 79
209 140 65
191 121 56
176 110 52
166 101 49
157 94 47
150 89 46
144 85 45
140 82 45
136 80 45
133 78 44
130 77 44
127 75 43
124 73 42
122 72 41
33 24 20
37 27 24
38 28 25
35 27 24
35 27 24
35 27 24
35 27 25
37 28 27
40 31 30
41 30 29
43 31 27
49 34 29
59 38 31
75 46 35
83 45 33
106 58 36
135 79 46
153 91 51
137 76 46
110 60 41
85 48 36
72 44 36
61 40 34
52 36 32
48 35 32
46 34 32
42 33 31
42 33 33
38 31 32
37 31 31
39 32 33
37 30 31
36 32 31
38 31 31
34 28 29
32 27 28
51 47 48
50 45 46
52 47 48
51 47 47
48 44 44
47 43 43
47 43 44
48 43 45
46 42 43
50 46 45
51 46 47
55 47 48
60 50 50
66 51 48
74 55 50
86 60 54
94 64 55
104 66 54
96 61 54
80 53 50
69 50 48
62 49 48
61 50 50
61 51 52
53 48 47
53 48 49
49 45 46
49 45 46
51 46 49
46 41 45
44 39 43
48 43 46
47 42 46
49 44 48
48 44 46
40 36 38
42 40 39
38 36 35
35 31 32
33 31 30
43 41 39
48 44 44
55 51 50
58 54 54
58 53 52
62 57 55
61 56 54
63 56 54
72 61 58
76 62 57
72 56 52
72 53 51
84 62 56
111 75 60
105 75 63
95 71 62
86 66 58
84 67 61
75 63 61
65 57 55
62 55 55
55 51 51
54 50 48
55 51 50
54 50 50
49 45 47
46 43 46
46 42 44
42 38 43
38 36 39
39 35 39
37 33 37
37 34 35
41 37 37
46 42 41
47 43 43
46 42 41
51 46 46
56 49 48
58 52 53
52 47 46
67 61 58
69 60 58
60 50 50
73 63 61
70 58 56
82 67 62
86 67 59
86 66 61
76 59 57
74 57 55
64 51 48
61 51 49
56 46 45
58 49 48
72 62 61
61 54 53
62 56 54
70 63 61
67 61 60
68 61 61
70 62 62
64 56 56
65 58 58
64 59 57
60 55 54
58 54 54
54 50 50
44 41 42
53 49 47
53 48 45
66 58 55
58 52 52
50 46 44
51 47 46
53 49 48
58 54 53
58 54 52
56 51 48
62 55 53
63 53 51
61 50 48
87 70 63
79 62 55
76 59 53
83 63 58
73 58 53
71 57 55
57 50 49
54 47 47
58 51 50
49 46 46
55 50 50
49 44 46
50 46 46
53 48 49
53 49 50
41 37 39
42 39 38
47 44 45
49 44 47
53 48 51
60 55 54
50 46 49
39 37 39
43 40 40
51 47 46
62 55 53
61 55 52
56 51 48
51 46 46
64 55 55
59 53 51
48 45 44
55 50 49
57 49 47
62 53 51
58 48 46
56 47 43
57 47 42
78 56 47
131 93 65
141 101 74
84 68 59
75 61 56
64 53 49
65 55 54
56 50 49
65 57 57
64 55 55
66 61 59
62 57 54
53 49 50
54 52 52
59 57 59
50 48 50
42 40 42
51 47 46
49 44 44
53 49 49
40 40 45
44 41 47
44 40 44
48 43 45
53 46 46
52 46 45
62 56 51
93 81 71
93 80 70
79 70 63
72 63 60
60 55 53
56 48 48
53 45 45
44 38 39
42 34 33
68 53 49
78 55 47
75 56 48
61 50 48
69 58 54
72 64 59
80 69 62
72 62 58
75 65 62
82 72 67
71 63 61
54 51 51
58 53 52
69 62 60
69 63 60
63 59 56
58 54 55
40 37 40
47 44 47
38 36 39
45 43 48
46 44 48
49 44 49
48 44 47
57 50 50
73 65 60
78 70 62
81 71 62
87 77 69
80 69 62
76 65 60
72 62 56
76 62 58
82 67 60
81 65 59
74 59 54
81 62 52
79 59 49
76 58 49
61 50 48
69 58 53
77 67 60
80 70 64
78 69 64
69 61 57
69 63 62
66 59 58
77 68 64
73 65 62
67 60 59
68 61 59
61 55 52
48 44 46
45 42 45
42 39 42
32 31 34
64 58 57
53 49 51
55 51 52
59 54 57
58 55 54
67 62 57
69 63 61
68 60 55
79 68 60
90 75 65
84 70 61
76 62 55
94 74 64
106 80 64
119 88 66
118 84 62
131 93 66
135 97 69
90 66 55
65 55 50
61 52 47
58 51 48
65 56 51
69 62 56
57 53 51
47 43 43
46 43 45
44 41 42
33 31 32
46 43 43
57 53 53
57 53 51
44 41 41
41 39 40
47 44 44
58 54 51
71 64 59
69 61 56
74 66 62
90 78 69
79 71 63
54 50 49
52 50 50
50 49 48
50 49 50
46 44 46
39 35 37
73 62 58
70 60 54
81 66 61
118 87 67
151 108 71
160 123 87
148 113 76
128 91 64
109 81 64
107 81 62
90 72 59
70 62 55
44 41 41
52 49 46
64 59 55
69 61 57
66 58 55
62 55 53
70 62 60
66 58 55
67 58 57
59 53 51
52 48 46
66 58 56
71 63 57
59 51 49
64 57 53
57 52 50
62 56 53
76 68 62
75 68 61
69 62 57
56 53 52
43 40 43
30 30 34
33 31 36
46 42 45
54 45 43
66 51 43
111 74 53
170 123 80
180 129 83
182 137 90
149 107 70
108 75 56
89 66 53
88 69 56
91 75 63
77 64 56
66 57 51
64 57 53
59 54 50
57 51 49
60 55 55
57 53 52
62 58 56
54 50 50
50 47 45
52 49 48
56 50 52
61 56 55
45 42 43
49 46 46
56 50 48
68 60 54
68 60 53
65 59 53
56 52 48
59 52 50
57 51 46
53 48 42
47 43 40
23 23 24
18 18 18
18 17 17
32 25 24
66 46 36
106 78 57
149 108 71
166 116 77
135 94 63
134 92 62
115 82 60
109 82 62
99 77 61
98 79 65
87 72 60
82 68 61
89 74 62
84 70 59
88 74 62
80 68 60
63 54 49
54 47 46
42 40 42
41 37 38
48 45 46
53 50 51
53 50 51
46 44 47
47 43 45
35 32 33
36 32 35
35 31 34
53 48 48
44 41 42
29 29 33
21 20 25
20 20 24
22 23 27
30 28 32
30 26 27
36 30 29
67 45 33
99 69 47
91 66 49
85 62 51
88 67 53
73 62 56
52 46 46
56 51 49
67 59 54
73 63 54
69 59 55
70 61 55
68 61 56
51 45 43
50 44 42
48 42 43
49 44 43
45 42 43
41 39 39
27 26 29
56 50 52
44 40 41
49 44 46
56 53 51
55 50 47
58 51 48
49 44 43
49 47 45
52 48 48
42 40 44
22 21 26
35 34 38
39 38 43
36 33 40
29 27 32
23 21 25
18 16 19
30 24 27
22 18 18
50 34 27
56 39 33
44 34 31
38 32 30
57 46 38
61 52 48
56 48 47
64 58 50
54 51 48
48 43 44
53 47 45
72 61 55
74 64 57
64 56 52
50 44 42
47 42 43
64 56 52
82 67 49
83 69 50
81 67 51
70 60 46
53 46 36
45 37 34
38 32 29
42 34 31
46 38 34
36 30 31
23 21 22
22 21 25
30 27 30
35 30 33
34 29 31
29 25 26
30 25 24
28 25 27
25 23 26
23 21 24
22 21 23
19 17 19
24 21 20
34 30 27
32 26 25
32 29 27
28 25 25
33 29 28
34 28 27
36 31 29
44 40 39
50 45 42
51 46 42
58 50 44
65 56 49
50 45 47
80 67 50
83 68 51
83 68 53
86 69 53
83 67 51
84 67 52
86 69 53
88 71 53
85 69 53
60 53 42
35 30 29
21 17 17
30 23 20
42 31 28
43 30 26
49 36 30
39 30 27
36 29 26
48 38 35
48 37 33
39 33 33
34 29 31
31 25 25
25 20 22
33 27 27
43 38 34
43 39 35
41 35 32
48 39 34
41 34 32
34 28 28
25 22 21
28 25 25
34 30 31
34 31 30
25 22 23
73 61 45
75 62 47
76 64 49
74 62 48
76 63 49
79 66 50
80 67 51
83 67 51
85 68 51
91 70 48
97 72 46
106 75 46
53 39 28
49 33 27
53 38 31
62 43 32
56 38 28
29 22 21
47 35 30
48 35 29
34 27 24
47 35 32
51 37 31
40 30 28
32 25 24
27 23 23
24 23 24
24 22 24
16 15 16
18 15 16
23 20 21
32 28 27
33 30 28
36 31 30
34 30 29
29 27 27
66 55 43
69 58 45
73 60 44
73 61 45
76 64 48
78 64 49
76 63 50
76 64 50
83 66 51
89 69 47
99 73 45
114 79 44
130 87 47
53 36 29
35 25 24
40 29 25
37 29 26
59 41 34
58 41 32
51 37 32
44 35 33
31 27 27
30 27 27
34 31 31
40 33 31
41 33 30
37 31 30
36 32 31
37 31 31
31 29 28
33 29 28
36 32 32
26 23 27
35 30 29
39 33 33
26 24 26
59 51 39
64 53 41
64 54 42
67 55 44
70 59 46
69 59 46
73 62 49
76 62 50
82 65 49
83 66 47
90 69 46
110 78 46
134 90 46
68 47 29
31 21 19
51 34 29
49 31 24
52 36 27
58 39 30
53 37 29
57 41 34
60 44 36
60 45 38
52 39 34
33 27 28
37 33 34
52 43 41
45 38 37
46 41 38
45 40 38
56 48 45
44 39 42
41 38 39
41 37 39
26 22 27
23 22 21
34 25 18
46 36 27
58 46 36
65 52 40
74 62 47
76 64 50
75 66 50
75 65 51
75 62 50
74 61 46
77 60 44
85 63 42
114 78 43
152 103 51
100 69 35
39 27 24
34 24 20
38 28 24
42 29 25
40 32 25
68 50 40
63 47 41
53 42 39
62 47 42
63 49 44
51 42 43
44 37 38
51 43 45
32 30 34
24 23 29
28 27 33
29 29 37
20 21 27
27 28 38
30 31 39
29 29 35
26 18 12
27 19 13
29 21 14
37 26 18
46 31 23
53 36 26
59 42 32
62 45 31
68 48 33
80 53 35
87 58 33
98 63 35
117 71 37
148 93 42
183 124 57
189 132 57
173 124 62
86 59 38
23 19 18
41 32 31
47 36 33
44 36 32
39 30 29
36 30 31
30 26 29
36 32 35
30 30 34
40 38 45
43 43 49
42 43 50
48 47 54
45 46 50
41 43 50
43 44 49
51 49 55
50 48 52
28 20 15
28 20 14
27 19 14
29 21 15
31 22 14
36 24 17
42 27 19
53 35 23
63 40 26
70 44 26
79 51 31
89 56 33
101 62 32
113 69 37
116 74 38
126 80 42
125 79 43
97 66 41
79 60 42
60 49 38
32 28 26
27 22 21
38 33 35
28 25 27
22 20 23
37 34 38
37 36 43
46 42 46
50 46 52
54 50 53
52 50 49
57 55 54
49 47 50
37 38 43
25 26 31
34 34 40
25 19 13
26 19 13
25 17 12
24 17 11
25 16 13
26 17 12
31 21 12
44 28 20
61 38 24
71 43 27
84 50 28
99 55 28
123 72 32
134 79 33
134 79 34
150 93 43
152 102 50
131 87 46
102 71 42
87 63 42
74 57 43
64 50 39
51 44 36
28 24 22
33 30 36
61 54 57
46 40 41
49 42 43
57 50 49
40 39 42
47 44 50
44 44 49
43 41 48
41 39 42
40 37 36
49 45 44
27 21 14
29 20 15
29 20 15
28 19 14
27 19 13
26 18 13
25 16 12
26 17 13
36 22 15
59 36 22
87 50 26
100 58 28
128 76 33
137 82 37
129 76 35
124 77 35
129 81 38
112 73 40
90 59 35
78 52 35
73 52 38
65 49 35
60 47 37
61 50 42
60 51 42
43 37 32
58 49 50
59 51 56
48 44 49
47 45 46
59 51 48
41 41 45
36 37 40
37 37 43
42 40 43
48 47 46
27 19 13
24 18 12
24 17 12
27 18 13
26 19 13
25 17 12
23 16 10
23 16 12
24 15 12
27 18 12
44 27 16
61 36 19
72 41 21
89 51 25
93 53 25
111 66 29
120 72 31
104 63 31
90 58 33
74 48 31
54 40 31
48 37 29
48 38 32
50 40 35
54 45 40
52 43 36
52 44 37
38 32 33
65 54 55
59 49 50
51 46 47
50 46 50
49 44 48
62 55 53
53 48 47
41 38 34
27 19 14
27 20 14
24 18 11
25 19 14
27 18 13
25 18 13
22 16 12
19 14 10
19 14 10
19 13 9
24 14 12
31 19 12
47 28 18
71 40 22
89 50 22
98 55 26
97 55 25
106 64 32
96 59 30
84 53 30
72 45 28
62 41 25
52 40 30
50 41 36
48 39 34
48 39 34
49 40 33
50 41 34
51 43 33
51 43 34
39 34 29
21 19 18
23 25 30
34 34 41
31 31 32
35 34 32
27 20 14
27 20 15
30 21 15
27 20 14
26 18 13
25 17 12
24 16 12
22 14 11
21 14 10
20 13 8
19 13 8
19 13 7
20 12 9
20 12 9
30 18 12
54 31 18
76 44 24
82 47 24
81 48 25
70 40 23
68 43 25
58 37 27
52 36 28
46 33 27
45 37 31
44 35 30
43 35 31
41 33 29
43 35 30
43 36 31
40 33 30
46 37 32
47 39 34
25 21 20
33 29 32
45 41 43
28 20 16
28 20 16
28 18 14
25 19 15
27 19 14
26 18 12
23 17 11
23 15 12
24 15 12
24 16 13
22 14 10
19 13 8
17 11 8
15 10 7
17 10 7
20 12 9
32 20 12
50 30 18
59 37 22
71 41 25
63 36 24
53 34 20
45 29 22
40 29 25
37 29 24
41 32 27
37 30 25
38 31 27
35 31 27
36 31 28
39 33 28
41 35 29
38 34 29
40 34 28
42 36 28
43 36 27
